<svg width="1100" height="1100" viewBox="0 0 1100 1100" fill="none" xmlns="http://www.w3.org/2000/svg">
<rect x="12.5" y="12.5" width="1075" height="1075" rx="537.5" fill="#EA4E35"/>
<path d="M299.811 287.944C299.811 296.136 297.934 303.901 294.179 311.24C290.595 318.408 285.56 324.893 279.075 330.696C272.59 336.328 264.995 341.107 256.291 345.032C247.587 348.957 238.115 351.603 227.875 352.968C230.435 360.648 233.507 368.584 237.091 376.776C240.846 384.797 244.856 392.563 249.123 400.072C253.39 407.581 257.827 414.493 262.435 420.808C267.043 427.123 271.566 432.328 276.003 436.424C275.15 438.131 273.87 439.837 272.163 441.544C270.627 443.251 268.75 444.787 266.531 446.152C264.483 447.688 262.264 448.883 259.875 449.736C257.656 450.76 255.523 451.272 253.475 451.272C249.72 451.272 246.136 449.48 242.723 445.896C239.31 442.312 235.811 436.68 232.227 429C228.814 421.149 225.144 411.08 221.219 398.792C217.464 386.333 213.283 371.4 208.675 353.992C206.798 353.992 204.92 353.992 203.043 353.992C201.166 353.992 199.715 353.821 198.691 353.48C197.496 352.797 196.216 351.603 194.851 349.896C190.243 359.795 186.147 369.096 182.563 377.8C178.979 386.504 175.736 394.952 172.835 403.144C170.104 411.165 167.63 419.016 165.411 426.696C163.363 434.205 161.571 441.885 160.035 449.736C154.232 448.371 149.198 445.896 144.931 442.312C140.664 438.728 136.654 433.693 132.899 427.208C133.582 425.672 134.264 424.221 134.947 422.856C135.8 421.32 136.824 419.272 138.019 416.712C139.214 413.981 140.664 410.568 142.371 406.472C144.248 402.376 146.638 396.915 149.539 390.088C152.611 383.261 156.195 374.899 160.291 365C164.558 355.101 169.678 343.069 175.651 328.904C178.382 322.589 180.686 317.043 182.563 312.264C184.611 307.485 186.403 302.963 187.939 298.696C189.475 294.259 190.84 289.907 192.035 285.64C193.4 281.203 194.766 276.168 196.131 270.536C188.28 273.267 180.942 276.339 174.115 279.752C167.459 282.995 161.912 286.493 157.475 290.248C155.939 289.224 154.318 287.688 152.611 285.64C151.075 283.592 149.624 281.373 148.259 278.984C146.894 276.424 145.699 273.864 144.675 271.304C143.651 268.744 143.054 266.44 142.883 264.392C148.003 260.979 154.232 257.821 161.571 254.92C169.08 252.019 177.016 249.544 185.379 247.496C193.742 245.277 202.275 243.571 210.979 242.376C219.683 241.181 227.79 240.584 235.299 240.584C255.779 240.584 271.651 244.851 282.915 253.384C294.179 261.747 299.811 273.267 299.811 287.944ZM237.347 266.44C236.152 267.976 234.275 271.048 231.715 275.656C229.155 280.264 226.168 285.811 222.755 292.296C219.512 298.611 216.014 305.523 212.259 313.032C208.675 320.541 205.176 327.965 201.763 335.304C214.563 335.304 226.339 334.109 237.091 331.72C247.843 329.331 257.144 326.003 264.995 321.736C272.846 317.299 278.904 312.179 283.171 306.376C287.608 300.403 289.827 293.832 289.827 286.664C289.827 278.131 286.755 271.645 280.611 267.208C274.467 262.6 264.995 260.296 252.195 260.296C249.294 260.296 246.392 260.467 243.491 260.808C240.59 260.979 237.518 261.235 234.275 261.576L237.347 266.44ZM382.605 323.016C381.922 333.597 380.045 342.728 376.973 350.408C373.901 357.917 369.464 364.573 363.661 370.376C358.029 376.008 351.117 381.128 342.925 385.736C334.733 390.344 325.176 394.781 314.253 399.048C314.253 400.072 314.168 401.181 313.997 402.376C313.997 403.4 313.997 404.509 313.997 405.704C313.997 407.923 314.168 410.227 314.509 412.616C314.85 415.005 315.448 417.224 316.301 419.272C317.154 421.32 318.349 423.027 319.885 424.392C321.421 425.587 323.384 426.184 325.773 426.184C330.381 426.184 334.904 425.16 339.341 423.112C343.778 421.064 347.96 418.589 351.885 415.688C355.981 412.616 359.736 409.373 363.149 405.96C366.733 402.376 369.89 399.133 372.621 396.232C374.328 397.768 375.778 399.219 376.973 400.584C369.293 410.824 360.845 419.357 351.629 426.184C342.584 432.84 333.965 437.107 325.773 438.984C313.997 437.619 304.781 433.352 298.125 426.184C291.64 418.845 288.397 410.056 288.397 399.816C288.397 392.819 289.336 385.736 291.213 378.568C293.261 371.229 295.992 364.232 299.405 357.576C302.989 350.749 307.085 344.349 311.693 338.376C316.472 332.403 321.506 327.197 326.797 322.76C332.258 318.323 337.805 314.824 343.437 312.264C349.24 309.704 354.957 308.424 360.589 308.424C368.44 309.448 375.778 314.312 382.605 323.016ZM364.941 331.464C360.333 332.147 355.554 334.024 350.605 337.096C345.656 340.168 340.962 344.264 336.525 349.384C332.258 354.504 328.333 360.477 324.749 367.304C321.165 374.131 318.349 381.469 316.301 389.32C329.954 382.493 341.304 374.131 350.349 364.232C359.394 354.163 364.258 343.24 364.941 331.464ZM395.993 383.944C395.993 374.216 397.956 364.829 401.881 355.784C405.977 346.568 411.268 338.461 417.753 331.464C424.409 324.296 431.918 318.579 440.281 314.312C448.814 309.875 457.604 307.656 466.649 307.656C475.524 307.656 482.35 309.875 487.129 314.312C491.908 318.749 494.297 325.064 494.297 333.256C494.297 337.181 493.7 341.021 492.505 344.776C491.481 348.36 490.03 351.603 488.153 354.504C486.446 357.405 484.398 359.795 482.009 361.672C479.62 363.379 477.23 364.232 474.841 364.232C472.793 364.232 470.66 363.635 468.441 362.44C466.393 361.075 464.686 359.368 463.321 357.32C474.756 346.909 480.473 337.437 480.473 328.904C480.473 323.955 478.51 321.48 474.585 321.48C471.172 321.48 466.905 323.101 461.785 326.344C456.665 329.587 451.716 333.853 446.937 339.144C439.598 347.336 433.966 356.467 430.041 366.536C426.286 376.435 424.409 386.845 424.409 397.768C424.409 411.592 427.481 419.869 433.625 422.6C436.185 422.259 439.172 421.491 442.585 420.296C445.998 419.101 449.668 417.565 453.593 415.688C457.518 413.64 461.529 411.336 465.625 408.776C469.892 406.216 473.988 403.485 477.913 400.584C478.596 401.096 479.193 401.864 479.705 402.888C480.217 403.912 480.473 404.851 480.473 405.704C477.572 409.288 474.244 412.787 470.489 416.2C466.734 419.613 462.809 422.771 458.713 425.672C454.617 428.403 450.606 430.707 446.681 432.584C442.926 434.632 439.598 435.912 436.697 436.424C431.065 435.912 425.774 434.12 420.825 431.048C415.876 428.147 411.524 424.307 407.769 419.528C404.185 414.749 401.284 409.288 399.065 403.144C397.017 397 395.993 390.6 395.993 383.944ZM593.605 323.016C592.922 333.597 591.045 342.728 587.973 350.408C584.901 357.917 580.464 364.573 574.661 370.376C569.029 376.008 562.117 381.128 553.925 385.736C545.733 390.344 536.176 394.781 525.253 399.048C525.253 400.072 525.168 401.181 524.997 402.376C524.997 403.4 524.997 404.509 524.997 405.704C524.997 407.923 525.168 410.227 525.509 412.616C525.85 415.005 526.448 417.224 527.301 419.272C528.154 421.32 529.349 423.027 530.885 424.392C532.421 425.587 534.384 426.184 536.773 426.184C541.381 426.184 545.904 425.16 550.341 423.112C554.778 421.064 558.96 418.589 562.885 415.688C566.981 412.616 570.736 409.373 574.149 405.96C577.733 402.376 580.89 399.133 583.621 396.232C585.328 397.768 586.778 399.219 587.973 400.584C580.293 410.824 571.845 419.357 562.629 426.184C553.584 432.84 544.965 437.107 536.773 438.984C524.997 437.619 515.781 433.352 509.125 426.184C502.64 418.845 499.397 410.056 499.397 399.816C499.397 392.819 500.336 385.736 502.213 378.568C504.261 371.229 506.992 364.232 510.405 357.576C513.989 350.749 518.085 344.349 522.693 338.376C527.472 332.403 532.506 327.197 537.797 322.76C543.258 318.323 548.805 314.824 554.437 312.264C560.24 309.704 565.957 308.424 571.589 308.424C579.44 309.448 586.778 314.312 593.605 323.016ZM575.941 331.464C571.333 332.147 566.554 334.024 561.605 337.096C556.656 340.168 551.962 344.264 547.525 349.384C543.258 354.504 539.333 360.477 535.749 367.304C532.165 374.131 529.349 381.469 527.301 389.32C540.954 382.493 552.304 374.131 561.349 364.232C570.394 354.163 575.258 343.24 575.941 331.464ZM605.713 411.848C605.713 410.312 605.798 408.435 605.969 406.216C606.31 403.827 606.822 400.755 607.505 397C608.188 393.075 609.041 388.381 610.065 382.92C611.26 377.459 612.71 370.888 614.417 363.208C614.758 361.501 615.526 358.771 616.721 355.016C617.916 351.261 619.452 347.336 621.329 343.24C623.377 338.973 625.766 334.877 628.497 330.952C631.398 327.027 634.812 324.125 638.737 322.248C641.638 322.931 645.478 324.723 650.257 327.624C655.036 330.355 659.132 334.195 662.545 339.144C658.62 343.581 655.292 348.019 652.561 352.456C650.001 356.893 647.612 361.501 645.393 366.28C643.345 371.059 641.382 376.008 639.505 381.128C637.798 386.248 635.836 391.624 633.617 397.256C631.74 402.035 630.033 406.984 628.497 412.104C626.961 417.053 626.108 421.405 625.937 425.16C625.937 428.232 625.852 430.365 625.681 431.56C625.681 432.925 625.254 433.608 624.401 433.608C623.718 433.608 622.353 433.181 620.305 432.328C618.257 431.475 616.124 430.195 613.905 428.488C611.857 426.611 609.98 424.307 608.273 421.576C606.566 418.845 605.713 415.603 605.713 411.848ZM654.609 300.744C654.609 299.72 654.865 298.184 655.377 296.136C654.524 295.283 653.756 294.003 653.073 292.296C652.561 290.589 652.305 289.053 652.305 287.688C652.305 286.152 652.476 284.104 652.817 281.544C653.329 278.813 653.926 275.912 654.609 272.84C655.292 269.768 656.145 266.611 657.169 263.368C658.193 259.955 659.217 256.883 660.241 254.152C662.289 254.152 664.764 254.749 667.665 255.944C670.737 256.968 673.809 258.419 676.881 260.296C679.953 262.003 682.769 263.965 685.329 266.184C687.889 268.232 689.852 270.195 691.217 272.072C689.34 273.949 686.865 276.595 683.793 280.008C680.721 283.251 677.734 286.749 674.833 290.504C671.932 294.088 669.286 297.501 666.897 300.744C664.508 303.987 662.972 306.291 662.289 307.656C660.241 307.315 658.449 306.461 656.913 305.096C655.377 303.56 654.609 302.109 654.609 300.744ZM679.311 330.952C678.458 329.928 677.69 327.795 677.007 324.552C676.324 321.139 675.983 318.237 675.983 315.848C680.42 316.189 684.687 316.531 688.783 316.872C692.879 317.043 696.634 317.213 700.047 317.384C702.607 312.264 705.338 307.229 708.239 302.28C711.311 297.16 714.212 292.552 716.943 288.456C719.844 284.189 722.49 280.605 724.879 277.704C727.439 274.803 729.402 272.925 730.767 272.072C732.474 272.072 734.607 272.413 737.167 273.096C739.898 273.608 742.628 274.376 745.359 275.4C748.09 276.253 750.564 277.192 752.783 278.216C755.002 279.24 756.538 280.264 757.391 281.288C752.271 287.773 747.834 293.832 744.079 299.464C740.495 304.925 736.57 311.24 732.303 318.408C735.716 318.408 739.13 318.323 742.543 318.152C746.127 317.981 749.711 317.725 753.295 317.384C754.148 318.237 754.831 319.347 755.343 320.712C755.855 321.907 756.111 323.187 756.111 324.552C747.748 327.624 737.594 329.331 725.647 329.672C721.38 337.864 717.54 346.056 714.127 354.248C710.884 362.269 708.068 370.035 705.679 377.544C703.46 385.053 701.668 392.136 700.303 398.792C699.108 405.448 698.511 411.421 698.511 416.712C698.511 424.221 701.327 428.403 706.959 429.256C712.079 428.573 716.943 427.293 721.551 425.416C726.159 423.539 730.255 421.149 733.839 418.248C734.863 419.784 735.46 421.064 735.631 422.088C734.607 423.624 732.815 425.416 730.255 427.464C727.866 429.512 725.22 431.475 722.319 433.352C719.418 435.4 716.602 437.107 713.871 438.472C711.14 439.837 709.092 440.605 707.727 440.776C703.46 440.605 699.194 439.667 694.927 437.96C690.66 436.253 686.735 434.12 683.151 431.56C679.738 429 676.922 426.184 674.703 423.112C672.484 419.869 671.375 416.712 671.375 413.64C671.375 409.544 671.887 404.424 672.911 398.28C674.106 391.965 675.727 385.139 677.775 377.8C679.823 370.461 682.212 362.781 684.943 354.76C687.674 346.739 690.66 338.803 693.903 330.952H679.311ZM842.527 325.576C844.234 325.576 846.196 325.917 848.415 326.6C850.804 327.112 852.938 327.88 854.815 328.904C856.692 329.757 858.228 330.696 859.423 331.72C860.788 332.744 861.471 333.683 861.471 334.536C858.058 341.704 854.9 348.957 851.999 356.296C849.098 363.464 846.623 370.376 844.575 377.032C842.527 383.688 840.906 389.917 839.711 395.72C838.687 401.523 838.175 406.557 838.175 410.824C838.175 415.603 838.687 419.613 839.711 422.856C840.735 425.928 842.442 428.147 844.831 429.512C842.783 430.877 840.138 431.987 836.895 432.84C833.652 433.693 830.751 434.12 828.191 434.12C818.975 434.12 814.367 427.805 814.367 415.176C814.367 405.448 817.61 392.136 824.095 375.24C820.682 383.091 816.756 390.515 812.319 397.512C807.882 404.339 803.359 410.397 798.751 415.688C794.143 420.979 789.45 425.331 784.671 428.744C780.063 431.987 775.796 433.949 771.871 434.632C765.556 434.291 760.436 431.304 756.511 425.672C752.586 419.869 750.623 412.531 750.623 403.656C750.623 394.099 752.671 384.029 756.767 373.448C760.863 362.867 766.068 353.053 772.383 344.008C778.868 334.963 785.866 327.453 793.375 321.48C800.884 315.336 808.138 312.093 815.135 311.752C816.842 312.264 818.719 313.288 820.767 314.824C822.986 316.36 825.034 318.152 826.911 320.2C828.959 322.248 830.666 324.381 832.031 326.6C833.396 328.648 834.164 330.44 834.335 331.976C827.508 333 820.426 336.328 813.087 341.96C805.919 347.592 799.348 354.419 793.375 362.44C787.572 370.291 782.794 378.739 779.039 387.784C775.284 396.829 773.407 405.277 773.407 413.128C773.407 416.371 774.602 418.419 776.991 419.272C781.94 418.248 787.658 414.067 794.143 406.728C800.628 399.219 808.479 387.699 817.695 372.168C819.402 369.096 821.279 365.683 823.327 361.928C825.546 358.173 827.764 354.248 829.983 350.152C832.202 346.056 834.335 341.96 836.383 337.864C838.602 333.597 840.65 329.501 842.527 325.576ZM962.777 327.112C962.606 330.355 962.009 333.768 960.985 337.352C960.132 340.765 959.022 343.923 957.657 346.824C956.292 349.555 954.841 351.859 953.305 353.736C951.769 355.613 950.318 356.552 948.953 356.552C947.076 356.381 945.966 355.101 945.625 352.712C945.625 352.2 945.796 351.432 946.137 350.408C946.649 349.213 947.161 347.933 947.673 346.568C948.185 345.203 948.612 343.837 948.953 342.472C949.465 341.107 949.721 339.912 949.721 338.888C949.721 336.499 949.124 334.536 947.929 333C946.905 331.293 945.454 330.44 943.577 330.44C936.75 330.44 931.545 334.707 927.961 343.24C924.377 351.773 922.585 364.317 922.585 380.872C922.585 382.579 922.67 383.603 922.841 383.944C926.425 383.773 929.582 383.688 932.313 383.688C935.214 383.517 938.03 383.432 940.761 383.432C940.932 383.773 941.017 384.456 941.017 385.48C941.017 387.016 940.676 388.125 939.993 388.808C936.068 389.661 932.91 390.429 930.521 391.112C928.302 391.624 926.596 392.136 925.401 392.648C924.206 393.16 923.438 393.757 923.097 394.44C922.926 394.952 922.841 395.72 922.841 396.744C922.841 398.109 922.841 399.475 922.841 400.84C923.012 402.205 923.097 403.912 923.097 405.96C923.097 420.296 919.172 431.816 911.321 440.52C903.641 449.224 892.889 454.259 879.065 455.624C876.676 455.453 874.201 454.771 871.641 453.576C869.081 452.381 866.606 450.845 864.217 448.968C861.998 447.091 860.036 444.957 858.329 442.568C856.622 440.349 855.428 438.045 854.745 435.656C854.745 429.171 856.11 423.027 858.841 417.224C861.572 411.251 865.241 406.045 869.849 401.608C874.628 397 880.174 393.331 886.489 390.6C892.974 387.699 899.972 385.992 907.481 385.48C907.481 381.213 907.054 377.032 906.201 372.936C905.348 368.84 904.409 364.915 903.385 361.16C902.532 357.235 901.678 353.48 900.825 349.896C899.972 346.141 899.545 342.472 899.545 338.888C899.545 334.28 900.484 329.757 902.361 325.32C904.238 320.712 906.713 316.531 909.785 312.776C912.857 308.851 916.441 305.523 920.537 302.792C924.633 300.061 928.9 298.184 933.337 297.16C935.214 297.672 937.689 299.208 940.761 301.768C944.004 304.157 947.161 306.888 950.233 309.96C953.305 313.032 956.036 316.189 958.425 319.432C960.814 322.504 962.265 325.064 962.777 327.112ZM878.297 443.848C882.393 442.141 886.233 439.667 889.817 436.424C893.572 433.181 896.814 429.512 899.545 425.416C902.276 421.32 904.409 416.968 905.945 412.36C907.652 407.752 908.505 403.229 908.505 398.792C905.092 399.304 901.337 400.925 897.241 403.656C893.145 406.216 889.305 409.373 885.721 413.128C882.137 416.712 879.15 420.467 876.761 424.392C874.372 428.317 873.177 431.731 873.177 434.632C873.177 438.387 874.884 441.459 878.297 443.848ZM492.515 509.448C495.928 509.448 499.854 510.472 504.291 512.52C508.728 514.568 512.654 517.213 516.067 520.456C515.214 513.629 514.104 507.229 512.739 501.256C511.544 495.112 509.667 488.797 507.107 482.312C504.718 475.827 501.475 468.744 497.379 461.064C493.283 453.384 488.163 444.595 482.019 434.696C482.531 433.16 483.64 431.368 485.347 429.32C487.224 427.272 489.272 425.395 491.491 423.688C493.88 421.811 496.27 420.189 498.659 418.824C501.219 417.459 503.608 416.605 505.827 416.264C510.606 421.555 515.128 428.211 519.395 436.232C523.662 444.083 527.416 452.616 530.659 461.832C533.902 470.877 536.376 480.264 538.083 489.992C539.96 499.72 540.899 509.021 540.899 517.896C540.899 526.771 539.875 535.901 537.827 545.288C535.95 554.675 533.219 563.891 529.635 572.936C526.222 581.811 522.211 590.259 517.603 598.28C512.995 606.301 507.96 613.469 502.499 619.784C497.208 626.099 491.662 631.219 485.859 635.144C480.056 639.24 474.254 641.8 468.451 642.824C456.675 641.459 447.63 637.619 441.315 631.304C435.171 625.16 432.099 616.627 432.099 605.704C432.099 599.901 432.952 593.587 434.659 586.76C436.536 579.933 438.926 573.192 441.827 566.536C444.899 559.709 448.398 553.139 452.323 546.824C456.419 540.339 460.686 534.536 465.123 529.416C469.731 524.296 474.339 519.944 478.947 516.36C483.555 512.776 488.078 510.472 492.515 509.448ZM466.403 632.584C472.376 630.536 478.35 626.013 484.323 619.016C490.296 612.019 495.672 603.827 500.451 594.44C505.23 584.883 509.07 574.728 511.971 563.976C515.043 553.053 516.579 542.557 516.579 532.488C516.579 529.587 516.579 527.795 516.579 527.112C516.579 526.429 516.494 525.747 516.323 525.064C512.227 526.771 507.875 529.672 503.267 533.768C498.659 537.864 494.051 542.643 489.443 548.104C484.835 553.395 480.483 559.197 476.387 565.512C472.291 571.827 468.622 578.141 465.379 584.456C462.136 590.771 459.576 596.829 457.699 602.632C455.822 608.435 454.883 613.555 454.883 617.992C454.883 626.525 458.723 631.389 466.403 632.584ZM639.105 523.016C638.422 533.597 636.545 542.728 633.473 550.408C630.401 557.917 625.964 564.573 620.161 570.376C614.529 576.008 607.617 581.128 599.425 585.736C591.233 590.344 581.676 594.781 570.753 599.048C570.753 600.072 570.668 601.181 570.497 602.376C570.497 603.4 570.497 604.509 570.497 605.704C570.497 607.923 570.668 610.227 571.009 612.616C571.35 615.005 571.948 617.224 572.801 619.272C573.654 621.32 574.849 623.027 576.385 624.392C577.921 625.587 579.884 626.184 582.273 626.184C586.881 626.184 591.404 625.16 595.841 623.112C600.278 621.064 604.46 618.589 608.385 615.688C612.481 612.616 616.236 609.373 619.649 605.96C623.233 602.376 626.39 599.133 629.121 596.232C630.828 597.768 632.278 599.219 633.473 600.584C625.793 610.824 617.345 619.357 608.129 626.184C599.084 632.84 590.465 637.107 582.273 638.984C570.497 637.619 561.281 633.352 554.625 626.184C548.14 618.845 544.897 610.056 544.897 599.816C544.897 592.819 545.836 585.736 547.713 578.568C549.761 571.229 552.492 564.232 555.905 557.576C559.489 550.749 563.585 544.349 568.193 538.376C572.972 532.403 578.006 527.197 583.297 522.76C588.758 518.323 594.305 514.824 599.937 512.264C605.74 509.704 611.457 508.424 617.089 508.424C624.94 509.448 632.278 514.312 639.105 523.016ZM621.441 531.464C616.833 532.147 612.054 534.024 607.105 537.096C602.156 540.168 597.462 544.264 593.025 549.384C588.758 554.504 584.833 560.477 581.249 567.304C577.665 574.131 574.849 581.469 572.801 589.32C586.454 582.493 597.804 574.131 606.849 564.232C615.894 554.163 620.758 543.24 621.441 531.464ZM357.618 783.944C357.618 774.216 359.581 764.829 363.506 755.784C367.602 746.568 372.893 738.461 379.378 731.464C386.034 724.296 393.543 718.579 401.906 714.312C410.439 709.875 419.229 707.656 428.274 707.656C437.149 707.656 443.975 709.875 448.754 714.312C453.533 718.749 455.922 725.064 455.922 733.256C455.922 737.181 455.325 741.021 454.13 744.776C453.106 748.36 451.655 751.603 449.778 754.504C448.071 757.405 446.023 759.795 443.634 761.672C441.245 763.379 438.855 764.232 436.466 764.232C434.418 764.232 432.285 763.635 430.066 762.44C428.018 761.075 426.311 759.368 424.946 757.32C436.381 746.909 442.098 737.437 442.098 728.904C442.098 723.955 440.135 721.48 436.21 721.48C432.797 721.48 428.53 723.101 423.41 726.344C418.29 729.587 413.341 733.853 408.562 739.144C401.223 747.336 395.591 756.467 391.666 766.536C387.911 776.435 386.034 786.845 386.034 797.768C386.034 811.592 389.106 819.869 395.25 822.6C397.81 822.259 400.797 821.491 404.21 820.296C407.623 819.101 411.293 817.565 415.218 815.688C419.143 813.64 423.154 811.336 427.25 808.776C431.517 806.216 435.613 803.485 439.538 800.584C440.221 801.096 440.818 801.864 441.33 802.888C441.842 803.912 442.098 804.851 442.098 805.704C439.197 809.288 435.869 812.787 432.114 816.2C428.359 819.613 424.434 822.771 420.338 825.672C416.242 828.403 412.231 830.707 408.306 832.584C404.551 834.632 401.223 835.912 398.322 836.424C392.69 835.912 387.399 834.12 382.45 831.048C377.501 828.147 373.149 824.307 369.394 819.528C365.81 814.749 362.909 809.288 360.69 803.144C358.642 797 357.618 790.6 357.618 783.944ZM551.902 725.576C553.609 725.576 555.571 725.917 557.79 726.6C560.179 727.112 562.313 727.88 564.19 728.904C566.067 729.757 567.603 730.696 568.798 731.72C570.163 732.744 570.846 733.683 570.846 734.536C567.433 741.704 564.275 748.957 561.374 756.296C558.473 763.464 555.998 770.376 553.95 777.032C551.902 783.688 550.281 789.917 549.086 795.72C548.062 801.523 547.55 806.557 547.55 810.824C547.55 815.603 548.062 819.613 549.086 822.856C550.11 825.928 551.817 828.147 554.206 829.512C552.158 830.877 549.513 831.987 546.27 832.84C543.027 833.693 540.126 834.12 537.566 834.12C528.35 834.12 523.742 827.805 523.742 815.176C523.742 805.448 526.985 792.136 533.47 775.24C530.057 783.091 526.131 790.515 521.694 797.512C517.257 804.339 512.734 810.397 508.126 815.688C503.518 820.979 498.825 825.331 494.046 828.744C489.438 831.987 485.171 833.949 481.246 834.632C474.931 834.291 469.811 831.304 465.886 825.672C461.961 819.869 459.998 812.531 459.998 803.656C459.998 794.099 462.046 784.029 466.142 773.448C470.238 762.867 475.443 753.053 481.758 744.008C488.243 734.963 495.241 727.453 502.75 721.48C510.259 715.336 517.513 712.093 524.51 711.752C526.217 712.264 528.094 713.288 530.142 714.824C532.361 716.36 534.409 718.152 536.286 720.2C538.334 722.248 540.041 724.381 541.406 726.6C542.771 728.648 543.539 730.44 543.71 731.976C536.883 733 529.801 736.328 522.462 741.96C515.294 747.592 508.723 754.419 502.75 762.44C496.947 770.291 492.169 778.739 488.414 787.784C484.659 796.829 482.782 805.277 482.782 813.128C482.782 816.371 483.977 818.419 486.366 819.272C491.315 818.248 497.033 814.067 503.518 806.728C510.003 799.219 517.854 787.699 527.07 772.168C528.777 769.096 530.654 765.683 532.702 761.928C534.921 758.173 537.139 754.248 539.358 750.152C541.577 746.056 543.71 741.96 545.758 737.864C547.977 733.597 550.025 729.501 551.902 725.576ZM672.152 727.112C671.981 730.355 671.384 733.768 670.36 737.352C669.507 740.765 668.397 743.923 667.032 746.824C665.667 749.555 664.216 751.859 662.68 753.736C661.144 755.613 659.693 756.552 658.328 756.552C656.451 756.381 655.341 755.101 655 752.712C655 752.2 655.171 751.432 655.512 750.408C656.024 749.213 656.536 747.933 657.048 746.568C657.56 745.203 657.987 743.837 658.328 742.472C658.84 741.107 659.096 739.912 659.096 738.888C659.096 736.499 658.499 734.536 657.304 733C656.28 731.293 654.829 730.44 652.952 730.44C646.125 730.44 640.92 734.707 637.336 743.24C633.752 751.773 631.96 764.317 631.96 780.872C631.96 782.579 632.045 783.603 632.216 783.944C635.8 783.773 638.957 783.688 641.688 783.688C644.589 783.517 647.405 783.432 650.136 783.432C650.307 783.773 650.392 784.456 650.392 785.48C650.392 787.016 650.051 788.125 649.368 788.808C645.443 789.661 642.285 790.429 639.896 791.112C637.677 791.624 635.971 792.136 634.776 792.648C633.581 793.16 632.813 793.757 632.472 794.44C632.301 794.952 632.216 795.72 632.216 796.744C632.216 798.109 632.216 799.475 632.216 800.84C632.387 802.205 632.472 803.912 632.472 805.96C632.472 820.296 628.547 831.816 620.696 840.52C613.016 849.224 602.264 854.259 588.44 855.624C586.051 855.453 583.576 854.771 581.016 853.576C578.456 852.381 575.981 850.845 573.592 848.968C571.373 847.091 569.411 844.957 567.704 842.568C565.997 840.349 564.803 838.045 564.12 835.656C564.12 829.171 565.485 823.027 568.216 817.224C570.947 811.251 574.616 806.045 579.224 801.608C584.003 797 589.549 793.331 595.864 790.6C602.349 787.699 609.347 785.992 616.856 785.48C616.856 781.213 616.429 777.032 615.576 772.936C614.723 768.84 613.784 764.915 612.76 761.16C611.907 757.235 611.053 753.48 610.2 749.896C609.347 746.141 608.92 742.472 608.92 738.888C608.92 734.28 609.859 729.757 611.736 725.32C613.613 720.712 616.088 716.531 619.16 712.776C622.232 708.851 625.816 705.523 629.912 702.792C634.008 700.061 638.275 698.184 642.712 697.16C644.589 697.672 647.064 699.208 650.136 701.768C653.379 704.157 656.536 706.888 659.608 709.96C662.68 713.032 665.411 716.189 667.8 719.432C670.189 722.504 671.64 725.064 672.152 727.112ZM587.672 843.848C591.768 842.141 595.608 839.667 599.192 836.424C602.947 833.181 606.189 829.512 608.92 825.416C611.651 821.32 613.784 816.968 615.32 812.36C617.027 807.752 617.88 803.229 617.88 798.792C614.467 799.304 610.712 800.925 606.616 803.656C602.52 806.216 598.68 809.373 595.096 813.128C591.512 816.712 588.525 820.467 586.136 824.392C583.747 828.317 582.552 831.731 582.552 834.632C582.552 838.387 584.259 841.459 587.672 843.848ZM760.652 725.576C762.359 725.576 764.321 725.917 766.54 726.6C768.929 727.112 771.063 727.88 772.94 728.904C774.817 729.757 776.353 730.696 777.548 731.72C778.913 732.744 779.596 733.683 779.596 734.536C776.183 741.704 773.025 748.957 770.124 756.296C767.223 763.464 764.748 770.376 762.7 777.032C760.652 783.688 759.031 789.917 757.836 795.72C756.812 801.523 756.3 806.557 756.3 810.824C756.3 815.603 756.812 819.613 757.836 822.856C758.86 825.928 760.567 828.147 762.956 829.512C760.908 830.877 758.263 831.987 755.02 832.84C751.777 833.693 748.876 834.12 746.316 834.12C737.1 834.12 732.492 827.805 732.492 815.176C732.492 805.448 735.735 792.136 742.22 775.24C738.807 783.091 734.881 790.515 730.444 797.512C726.007 804.339 721.484 810.397 716.876 815.688C712.268 820.979 707.575 825.331 702.796 828.744C698.188 831.987 693.921 833.949 689.996 834.632C683.681 834.291 678.561 831.304 674.636 825.672C670.711 819.869 668.748 812.531 668.748 803.656C668.748 794.099 670.796 784.029 674.892 773.448C678.988 762.867 684.193 753.053 690.508 744.008C696.993 734.963 703.991 727.453 711.5 721.48C719.009 715.336 726.263 712.093 733.26 711.752C734.967 712.264 736.844 713.288 738.892 714.824C741.111 716.36 743.159 718.152 745.036 720.2C747.084 722.248 748.791 724.381 750.156 726.6C751.521 728.648 752.289 730.44 752.46 731.976C745.633 733 738.551 736.328 731.212 741.96C724.044 747.592 717.473 754.419 711.5 762.44C705.697 770.291 700.919 778.739 697.164 787.784C693.409 796.829 691.532 805.277 691.532 813.128C691.532 816.371 692.727 818.419 695.116 819.272C700.065 818.248 705.783 814.067 712.268 806.728C718.753 799.219 726.604 787.699 735.82 772.168C737.527 769.096 739.404 765.683 741.452 761.928C743.671 758.173 745.889 754.248 748.108 750.152C750.327 746.056 752.46 741.96 754.508 737.864C756.727 733.597 758.775 729.501 760.652 725.576Z" fill="white"/>
<path d="M958.85 706.908C957.893 699.687 956.834 692.514 955.863 685.35C952.789 662.941 950.9 640.098 947.763 617.583C944.642 595.237 943.39 572.715 940.823 550.322C940.293 545.668 939.695 536.438 934.805 534.18C924.285 529.33 919.686 545.426 917.686 551.99C914.088 563.901 912.483 576.242 910.234 588.454C908.322 598.907 906.018 609.361 905.855 620.027C905.743 628.029 906.587 636.904 911.208 643.708C913.529 647.127 917.215 649.273 921.26 649.966C925.46 650.7 930.03 648.871 934.092 650.456C935.14 650.872 936.115 651.84 936.61 652.86C938.167 656.151 937.42 661.411 937.33 664.951C937.059 676.355 936.727 687.879 937.12 699.28C937.365 706.175 937.741 714.999 942.268 720.635C945.041 724.055 950.314 727.018 954.651 724.825C961.135 721.584 959.629 712.652 958.85 706.908ZM898.505 531.312C896.424 531.041 893.472 537.62 892.295 539.485C890.203 542.851 887.808 547.519 884.842 551.733C884.817 551.771 884.796 551.796 884.774 551.82C884.561 552.109 884.341 552.426 884.088 552.749C883.84 553.059 883.595 553.354 883.361 553.667C881.751 555.628 879.588 557.801 877.59 558.288C875.316 558.852 872.213 556.667 872.036 554.348C871.739 550.569 875.369 544.607 875.359 544.364C876.935 541.462 881.527 532.584 884.216 526.536C884.415 526.078 885.827 523.448 883.708 521.857C882.715 521.125 881.056 521.417 879.705 522.92C875.716 527.357 869.149 536.412 868.211 537.891C868.113 538.03 868.008 538.197 867.924 538.34C867.924 538.34 867.903 538.365 867.899 538.379C867.711 538.689 862.989 546.028 859.64 547.567C857.888 548.376 854.765 548.006 853.113 545.126C852.458 543.973 852.427 542.461 852.642 540.984C854.883 531.101 862.553 523.213 865.427 519.004C866.24 517.824 869.709 514.316 867.215 513.061C863.462 511.168 849.501 524.499 846.538 527.691C839.195 535.651 833.237 545.246 831.719 556.135C830.885 562.169 832.464 568.413 836.167 573.136C837.808 575.215 839.822 577.198 842.123 579.004C829.208 599.278 815.647 620.388 807.737 631.927C801.769 640.601 795.614 649.3 790.456 658.493C787.374 663.984 783.562 670.454 784.378 677.02C785.234 683.882 794.129 686.085 799.448 681.629C805.433 676.6 809.044 668.798 815.006 656.662C820.972 644.513 829.298 628.047 833.767 619.182C840.35 606.13 846.48 594.942 852.232 584.826C859.202 587.581 866.84 588.183 873.223 584.87C876.02 583.423 878.469 581.417 880.655 579.16C883.978 575.749 887.002 571.655 889.165 567.406C891.135 563.482 905.196 532.188 898.505 531.312Z" fill="white"/>
<path d="M296.957 674.437C292.519 668.662 288.015 662.98 283.592 657.261C269.725 639.392 256.668 620.553 242.694 602.623C228.818 584.831 216.472 565.953 203.053 547.844C200.267 544.078 195.134 536.383 189.77 536.873C178.235 537.933 182.3 554.172 183.85 560.856C186.689 572.971 191.469 584.46 195.628 596.161C199.199 606.17 202.43 616.375 207.622 625.693C211.526 632.679 216.695 639.943 224.098 643.525C227.818 645.326 232.083 645.341 235.933 643.919C239.937 642.455 242.98 638.586 247.291 637.927C248.406 637.764 249.735 638.115 250.673 638.751C253.667 640.821 255.65 645.75 257.342 648.862C262.81 658.873 268.284 669.019 274.325 678.696C277.985 684.544 282.722 691.999 289.461 694.616C293.572 696.192 299.62 696.12 302.28 692.053C306.275 686.004 300.504 679.022 296.957 674.437ZM156.899 552.539C154.962 553.344 155.695 560.518 155.608 562.723C155.479 566.683 155.739 571.923 155.278 577.055C155.275 577.101 155.268 577.133 155.262 577.165C155.222 577.522 155.19 577.906 155.133 578.313C155.072 578.705 155.008 579.083 154.962 579.472C154.548 581.974 153.761 584.937 152.275 586.358C150.588 587.984 146.807 587.643 145.495 585.723C143.348 582.598 143.511 575.621 143.38 575.415C143.294 572.114 142.832 562.13 142.137 555.547C142.079 555.051 141.988 552.067 139.358 551.749C138.132 551.612 136.841 552.694 136.422 554.672C135.186 560.508 134.026 571.634 133.953 573.383C133.938 573.553 133.931 573.75 133.93 573.916C133.93 573.916 133.923 573.948 133.927 573.962C133.919 574.325 133.499 583.041 131.369 586.049C130.256 587.626 127.366 588.866 124.496 587.199C123.352 586.527 122.569 585.233 122.017 583.847C119.016 574.167 121.714 563.501 122.099 558.419C122.213 556.99 123.464 552.218 120.676 552.378C116.479 552.615 111.054 571.141 110.084 575.387C107.705 585.952 107.342 597.24 111.473 607.429C113.767 613.072 118.257 617.69 123.825 619.928C126.286 620.908 129.021 621.62 131.917 622.032C130.869 646.048 129.68 671.11 128.599 685.058C127.768 695.554 126.787 706.165 126.916 716.705C126.993 723.002 126.927 730.51 130.916 735.789C135.089 741.304 143.894 738.765 146.272 732.246C148.941 724.898 148.167 716.336 147.262 702.845C146.354 689.34 145.332 670.918 144.769 661.006C143.945 646.41 143.659 633.657 143.582 622.02C150.997 620.921 157.912 617.624 161.784 611.562C163.482 608.911 164.601 605.949 165.365 602.901C166.537 598.285 167.109 593.229 166.857 588.468C166.601 584.084 163.132 549.952 156.899 552.539Z" fill="white"/>
<rect x="12.5" y="12.5" width="1075" height="1075" rx="537.5" stroke="#252525" stroke-width="25"/>
</svg>
